<?xml version="1.0" encoding="utf-8"?>
<!-- Generator: Adobe Illustrator 26.4.1, SVG Export Plug-In . SVG Version: 6.00 Build 0)  -->
<svg version="1.1" id="Layer_1" xmlns="http://www.w3.org/2000/svg" xmlns:xlink="http://www.w3.org/1999/xlink" x="0px" y="0px"
	 viewBox="0 0 50 50" style="enable-background:new 0 0 50 50;" xml:space="preserve">
<style type="text/css">
	.st0{fill-rule:evenodd;clip-rule:evenodd;fill:#3AB795;}
	.st1{fill:#3AB795;}
</style>
<g>
	<g>
		<path class="st0" d="M37.79,49.31c0.64-0.13,1.17-0.29,1.51-0.48c1.16-0.66,1.89-1.76,0.41-1.76c-1.48,0-14.71,0-14.71,0
			s-13.23,0-14.71,0c-1.48,0-0.75,1.1,0.41,1.76c0.34,0.19,0.87,0.35,1.51,0.48H37.79z"/>
		<g>
			<path class="st1" d="M33.39,24.28l-2.29-1.32v-6.8l-2.46-2.06V7.33l-3.56-3.1V2.83h1.57V2.11h-1.57V0.69h-0.78v1.42h-1.58v0.71
				h1.58v1.41l-3.56,3.1v6.76l-2.46,2.06v6.81L16,24.28l-3.17,1.83v8.83h1.57v-7.97l7.85-4.53h4.89l7.85,4.53v7.97h1.57v-8.83
				L33.39,24.28z M27.65,20.96L27.65,20.96L27.65,20.96l-0.1-0.06h-2.86h0h-2.86l-0.09,0.05h-0.01v0l-1.03,0.6l-1.2,0.69v-5.1
				l2.45-2.06v-2.92h0V8.31l2.73-2.37l2.73,2.37v4.14h0v2.64l2.45,2.06v5.09l-1.19-0.69L27.65,20.96z"/>
			<polygon class="st1" points="28.68,34.94 30.25,34.94 30.25,26.1 28.68,25.2 			"/>
			<polygon class="st1" points="31.82,34.94 33.39,34.94 33.39,27.91 31.82,27.01 			"/>
			<polygon class="st1" points="19.14,34.94 20.71,34.94 20.71,25.2 19.14,26.1 			"/>
			<polygon class="st1" points="16,34.94 17.57,34.94 17.57,27.01 16,27.91 			"/>
			<polygon class="st1" points="22.33,34.94 23.92,34.94 23.92,29.95 23.94,29.93 25.41,29.93 25.44,29.95 25.44,34.94 27.02,34.94 
				27.02,28.48 22.33,28.48 			"/>
			<rect x="21.97" y="16.28" class="st1" width="0.8" height="3.47"/>
			<rect x="23.52" y="16.28" class="st1" width="0.8" height="3.47"/>
			<rect x="25.08" y="16.28" class="st1" width="0.8" height="3.47"/>
			<rect x="26.62" y="16.28" class="st1" width="0.8" height="3.47"/>
			<rect x="22.82" y="9.97" class="st1" width="0.8" height="3.47"/>
			<rect x="24.3" y="9.97" class="st1" width="0.8" height="3.47"/>
			<rect x="25.77" y="9.97" class="st1" width="0.8" height="3.47"/>
		</g>
		<path class="st0" d="M36.12,45.08c0.55,0.3,1.26,0,1.35-0.58c0.3-2.04,1-6.75,1.13-8.24c0.17-1.92-3.71-2-7.37-2.02
			c-3.65-0.03-17.2,0.08-18.85,0.18c-1.65,0.11-1.6,1.84-1.33,4.12c0.26,2.28,0.38,2.99,0.46,3.7c0.09,0.71,1.62,2.65,3.02-0.05
			c1.39-2.7,2.44-4.65,3.74-2.28c1.31,2.36,1.31,4.23,3.22,3.62c1.91-0.6,1.71-5.25,3.39-5.09c1.68,0.16,1.07,5.52,2.87,5.28
			c1.8-0.24,3.02-5.41,4.67-5.12C34.56,38.97,33.53,43.65,36.12,45.08z"/>
	</g>
</g>
</svg>
